<svg width="104" height="104" viewBox="0 0 104 104" fill="none" xmlns="http://www.w3.org/2000/svg">
<path d="M16 8C11.5817 8 8 11.5817 8 16V88C8 92.4183 11.5817 96 16 96H88C92.4183 96 96 92.4183 96 88V16C96 11.5817 92.4183 8 88 8H16ZM44.6666 74C46.6942 74 48.3332 75.6426 48.3332 77.6666C48.3332 79.6906 46.6942 81.3332 44.6666 81.3332H26.3334C25.8568 81.3332 25.38 81.2342 24.9328 81.0508C24.0344 80.6804 23.3194 79.9654 22.9492 79.0672C22.7658 78.6198 22.6668 78.1432 22.6668 77.6666V59.3334C22.6668 57.3094 24.3058 55.6668 26.3334 55.6668C28.361 55.6668 30 57.3094 30 59.3334V68.8154L42.0744 56.741C43.508 55.3074 45.8254 55.3074 47.259 56.741C48.6926 58.1746 48.6926 60.492 47.259 61.9256L35.1846 74H44.6666ZM81.3334 44.6666C81.3334 46.6906 79.6944 48.3332 77.6668 48.3332C75.6392 48.3332 74.0002 46.6906 74.0002 44.6666V35.1846L61.9258 47.259C61.2108 47.974 60.2722 48.3334 59.3334 48.3334C58.3948 48.3334 57.456 47.974 56.741 47.259C55.3074 45.8254 55.3074 43.508 56.741 42.0744L68.8154 30H59.3334C57.3058 30 55.6668 28.3574 55.6668 26.3334C55.6668 24.3094 57.3058 22.6668 59.3334 22.6668H77.6668C78.1434 22.6668 78.6202 22.7658 79.0674 22.9492C79.9658 23.3196 80.6808 24.0346 81.051 24.9328C81.238 25.3802 81.3334 25.8568 81.3334 26.3334V44.6666Z" fill="black"/>
</svg>
